<?xml version="1.0" encoding="UTF-8" standalone="no"?>
<!DOCTYPE svg PUBLIC "-//W3C//DTD SVG 1.1//EN" "http://www.w3.org/Graphics/SVG/1.1/DTD/svg11.dtd">
<svg xmlns="http://www.w3.org/2000/svg" version="1.1" viewBox="0 0 1785 986">
<path stroke="#6e7980" stroke-width="2.00" fill="none" stroke-linecap="butt" vector-effect="non-scaling-stroke" d="
  M 245.55 164.86
  Q 234.95 161.01 227.31 156.19
  Q 196.71 136.84 187.19 131.56
  Q 157.10 114.88 122.98 110.17
  Q 107.10 107.97 91.76 107.82
  A 0.94 0.94 0.3 0 0 90.81 108.76
  L 90.75 899.41
  A 1.09 1.09 -89.7 0 0 91.84 900.50
  Q 348.00 900.50 604.00 900.50
  Q 1150.00 900.50 1696.69 900.50
  A 0.56 0.56 0.0 0 0 1697.25 899.94
  L 1697.19 108.32
  A 0.50 0.50 -0.6 0 0 1696.68 107.82
  Q 1683.05 107.95 1669.50 109.47
  Q 1648.55 111.82 1628.78 119.08
  Q 1606.19 127.38 1586.07 140.57
  Q 1582.20 143.11 1566.31 153.06
  Q 1539.16 170.08 1508.75 172.01
  Q 1496.75 172.78 1484.75 172.05
  Q 1459.98 170.55 1438.29 159.56
  Q 1433.23 157.01 1421.13 149.30
  Q 1402.88 137.67 1395.56 133.44
  Q 1359.91 112.79 1319.22 108.94
  Q 1309.95 108.06 1299.26 107.86
  Q 1274.31 107.38 1251.31 112.06
  Q 1221.67 118.10 1194.15 134.38
  Q 1183.76 140.53 1173.66 147.14
  Q 1162.66 154.34 1154.44 158.69
  Q 1132.21 170.43 1106.25 171.76
  Q 1094.88 172.34 1083.50 171.75
  Q 1062.70 170.68 1043.85 162.71
  Q 1037.19 159.90 1026.26 153.26
  Q 1015.07 146.46 1003.94 139.58
  Q 992.11 132.27 986.71 129.42
  Q 959.96 115.26 931.94 110.81
  Q 905.16 106.56 876.50 108.50
  Q 834.47 111.34 798.31 131.06
  Q 789.79 135.71 767.39 149.84
  Q 755.46 157.36 750.16 159.96
  Q 728.77 170.47 704.50 171.76
  Q 690.57 172.50 678.00 171.50
  Q 657.68 169.89 639.22 161.46
  Q 633.09 158.66 621.83 151.63
  Q 597.66 136.53 590.69 132.56
  Q 559.64 114.91 527.19 110.31
  Q 493.98 105.61 461.75 109.75
  Q 425.38 114.43 393.06 133.07
  Q 382.98 138.88 373.24 145.26
  Q 362.41 152.35 353.69 157.19
  Q 331.16 169.69 305.48 171.64
  Q 296.12 172.35 285.50 172.03
  Q 275.10 171.71 264.85 169.95
  Q 254.90 168.25 245.55 164.86"
/>
<path fill="#000000" d="
  M 0.00 0.00
  L 1024.13 0.00
  L 1785.00 0.00
  L 1785.00 986.00
  L 760.88 986.00
  L 0.00 986.00
  L 0.00 0.00
  Z
  M 245.55 164.86
  Q 234.95 161.01 227.31 156.19
  Q 196.71 136.84 187.19 131.56
  Q 157.10 114.88 122.98 110.17
  Q 107.10 107.97 91.76 107.82
  A 0.94 0.94 0.3 0 0 90.81 108.76
  L 90.75 899.41
  A 1.09 1.09 -89.7 0 0 91.84 900.50
  Q 348.00 900.50 604.00 900.50
  Q 1150.00 900.50 1696.69 900.50
  A 0.56 0.56 0.0 0 0 1697.25 899.94
  L 1697.19 108.32
  A 0.50 0.50 -0.6 0 0 1696.68 107.82
  Q 1683.05 107.95 1669.50 109.47
  Q 1648.55 111.82 1628.78 119.08
  Q 1606.19 127.38 1586.07 140.57
  Q 1582.20 143.11 1566.31 153.06
  Q 1539.16 170.08 1508.75 172.01
  Q 1496.75 172.78 1484.75 172.05
  Q 1459.98 170.55 1438.29 159.56
  Q 1433.23 157.01 1421.13 149.30
  Q 1402.88 137.67 1395.56 133.44
  Q 1359.91 112.79 1319.22 108.94
  Q 1309.95 108.06 1299.26 107.86
  Q 1274.31 107.38 1251.31 112.06
  Q 1221.67 118.10 1194.15 134.38
  Q 1183.76 140.53 1173.66 147.14
  Q 1162.66 154.34 1154.44 158.69
  Q 1132.21 170.43 1106.25 171.76
  Q 1094.88 172.34 1083.50 171.75
  Q 1062.70 170.68 1043.85 162.71
  Q 1037.19 159.90 1026.26 153.26
  Q 1015.07 146.46 1003.94 139.58
  Q 992.11 132.27 986.71 129.42
  Q 959.96 115.26 931.94 110.81
  Q 905.16 106.56 876.50 108.50
  Q 834.47 111.34 798.31 131.06
  Q 789.79 135.71 767.39 149.84
  Q 755.46 157.36 750.16 159.96
  Q 728.77 170.47 704.50 171.76
  Q 690.57 172.50 678.00 171.50
  Q 657.68 169.89 639.22 161.46
  Q 633.09 158.66 621.83 151.63
  Q 597.66 136.53 590.69 132.56
  Q 559.64 114.91 527.19 110.31
  Q 493.98 105.61 461.75 109.75
  Q 425.38 114.43 393.06 133.07
  Q 382.98 138.88 373.24 145.26
  Q 362.41 152.35 353.69 157.19
  Q 331.16 169.69 305.48 171.64
  Q 296.12 172.35 285.50 172.03
  Q 275.10 171.71 264.85 169.95
  Q 254.90 168.25 245.55 164.86
  Z"
/>
<path fill="#dcf2ff" d="
  M 264.85 169.95
  Q 275.10 171.71 285.50 172.03
  Q 296.12 172.35 305.48 171.64
  Q 331.16 169.69 353.69 157.19
  Q 362.41 152.35 373.24 145.26
  Q 382.98 138.88 393.06 133.07
  Q 425.38 114.43 461.75 109.75
  Q 493.98 105.61 527.19 110.31
  Q 559.64 114.91 590.69 132.56
  Q 597.66 136.53 621.83 151.63
  Q 633.09 158.66 639.22 161.46
  Q 657.68 169.89 678.00 171.50
  Q 690.57 172.50 704.50 171.76
  Q 728.77 170.47 750.16 159.96
  Q 755.46 157.36 767.39 149.84
  Q 789.79 135.71 798.31 131.06
  Q 834.47 111.34 876.50 108.50
  Q 905.16 106.56 931.94 110.81
  Q 959.96 115.26 986.71 129.42
  Q 992.11 132.27 1003.94 139.58
  Q 1015.07 146.46 1026.26 153.26
  Q 1037.19 159.90 1043.85 162.71
  Q 1062.70 170.68 1083.50 171.75
  Q 1094.88 172.34 1106.25 171.76
  Q 1132.21 170.43 1154.44 158.69
  Q 1162.66 154.34 1173.66 147.14
  Q 1183.76 140.53 1194.15 134.38
  Q 1221.67 118.10 1251.31 112.06
  Q 1274.31 107.38 1299.26 107.86
  Q 1309.95 108.06 1319.22 108.94
  Q 1359.91 112.79 1395.56 133.44
  Q 1402.88 137.67 1421.13 149.30
  Q 1433.23 157.01 1438.29 159.56
  Q 1459.98 170.55 1484.75 172.05
  Q 1496.75 172.78 1508.75 172.01
  Q 1539.16 170.08 1566.31 153.06
  Q 1582.20 143.11 1586.07 140.57
  Q 1606.19 127.38 1628.78 119.08
  Q 1648.55 111.82 1669.50 109.47
  Q 1683.05 107.95 1696.68 107.82
  A 0.50 0.50 -0.6 0 1 1697.19 108.32
  L 1697.25 899.94
  A 0.56 0.56 0.0 0 1 1696.69 900.50
  Q 1150.00 900.50 604.00 900.50
  Q 348.00 900.50 91.84 900.50
  A 1.09 1.09 -90.0 0 1 90.75 899.41
  L 90.81 108.76
  A 0.94 0.94 0.3 0 1 91.76 107.82
  Q 107.10 107.97 122.98 110.17
  Q 157.10 114.88 187.19 131.56
  Q 196.71 136.84 227.31 156.19
  Q 234.95 161.01 245.55 164.86
  Q 254.90 168.25 264.85 169.95
  Z"
/>
</svg>
