<?xml version="1.0" encoding="UTF-8" standalone="no"?>
<!DOCTYPE svg PUBLIC "-//W3C//DTD SVG 1.1//EN" "http://www.w3.org/Graphics/SVG/1.1/DTD/svg11.dtd">
<svg xmlns="http://www.w3.org/2000/svg" version="1.1" viewBox="0 0 1357 1543">
<g stroke-width="2.00" fill="none" stroke-linecap="butt">
<path stroke="#808080" vector-effect="non-scaling-stroke" d="
  M 1185.8599 94.3331
  A 19.16 18.32 -0.2 0 0 1166.6361 76.0801
  A 19.16 18.32 -0.2 0 0 1147.5401 94.4669
  A 19.16 18.32 -0.2 0 0 1166.7639 112.7199
  A 19.16 18.32 -0.2 0 0 1185.8599 94.3331"
/>
<path stroke="#808080" vector-effect="non-scaling-stroke" d="
  M 1043.61 167.92
  A 18.81 18.81 0.0 0 0 1024.80 149.11
  A 18.81 18.81 0.0 0 0 1005.99 167.92
  A 18.81 18.81 0.0 0 0 1024.80 186.73
  A 18.81 18.81 0.0 0 0 1043.61 167.92"
/>
<path stroke="#808080" vector-effect="non-scaling-stroke" d="
  M 1111.27 202.80
  A 18.99 18.99 0.0 0 0 1092.28 183.81
  A 18.99 18.99 0.0 0 0 1073.29 202.80
  A 18.99 18.99 0.0 0 0 1092.28 221.79
  A 18.99 18.99 0.0 0 0 1111.27 202.80"
/>
<path stroke="#808080" vector-effect="non-scaling-stroke" d="
  M 1179.18 237.61
  A 18.85 18.85 0.0 0 0 1160.33 218.76
  A 18.85 18.85 0.0 0 0 1141.48 237.61
  A 18.85 18.85 0.0 0 0 1160.33 256.46
  A 18.85 18.85 0.0 0 0 1179.18 237.61"
/>
<path stroke="#808080" vector-effect="non-scaling-stroke" d="
  M 897.51 249.24
  A 18.84 18.84 0.0 0 0 878.67 230.40
  A 18.84 18.84 0.0 0 0 859.83 249.24
  A 18.84 18.84 0.0 0 0 878.67 268.08
  A 18.84 18.84 0.0 0 0 897.51 249.24"
/>
<path stroke="#808080" vector-effect="non-scaling-stroke" d="
  M 991.21 303.82
  A 18.88 18.88 0.0 0 0 972.33 284.94
  A 18.88 18.88 0.0 0 0 953.45 303.82
  A 18.88 18.88 0.0 0 0 972.33 322.70
  A 18.88 18.88 0.0 0 0 991.21 303.82"
/>
<path stroke="#808080" vector-effect="non-scaling-stroke" d="
  M 739.61 336.71
  A 18.79 18.79 0.0 0 0 720.82 317.92
  A 18.79 18.79 0.0 0 0 702.03 336.71
  A 18.79 18.79 0.0 0 0 720.82 355.50
  A 18.79 18.79 0.0 0 0 739.61 336.71"
/>
<path stroke="#808080" vector-effect="non-scaling-stroke" d="
  M 1166.45 394.18
  Q 1150.41 391.10 1143.24 404.73
  Q 1143.21 404.77 1142.56 406.46
  Q 1141.95 408.06 1140.25 408.79"
/>
<path stroke="#6e7980" vector-effect="non-scaling-stroke" d="
  M 1140.25 408.79
  Q 1060.65 452.66 1005.19 483.69
  Q 1004.05 484.32 1002.86 484.52"
/>
<path stroke="#808080" vector-effect="non-scaling-stroke" d="
  M 1002.86 484.52
  Q 1001.85 474.25 993.75 470.00
  Q 986.73 466.32 979.02 468.32
  Q 969.99 470.66 966.67 479.36
  Q 962.92 489.17 969.00 497.55
  Q 970.75 499.97 972.45 501.83"
/>
<path stroke="#6e7980" vector-effect="non-scaling-stroke" d="
  M 972.45 501.83
  L 399.41 820.02"
/>
<path stroke="#808080" vector-effect="non-scaling-stroke" d="
  M 399.41 820.02
  Q 401.64 812.67 398.69 806.31
  Q 394.67 797.68 386.33 795.60
  Q 378.75 793.72 371.65 797.74
  Q 363.27 802.48 362.67 812.58
  Q 362.26 819.62 365.82 824.75
  Q 369.66 830.29 376.79 832.50"
/>
<path stroke="#6e7980" vector-effect="non-scaling-stroke" d="
  M 376.79 832.50
  L 241.92 907.50
  Q 241.51 907.73 241.92 907.96
  L 1279.51 1484.51
  A 0.29 0.29 -76.0 0 0 1279.94 1484.25
  L 1280.06 331.83
  A 0.51 0.51 75.4 0 0 1279.30 331.38
  L 1166.45 394.18"
/>
<path stroke="#eef9ff" vector-effect="non-scaling-stroke" d="
  M 376.79 832.50
  Q 392.77 834.60 399.41 820.02"
/>
<path stroke="#eef9ff" vector-effect="non-scaling-stroke" d="
  M 972.45 501.83
  Q 983.86 508.97 993.80 503.02
  Q 998.74 500.07 1001.08 495.42
  Q 1003.56 490.49 1002.86 484.52"
/>
<path stroke="#eef9ff" vector-effect="non-scaling-stroke" d="
  M 1140.25 408.79
  Q 1140.14 409.62 1140.76 409.89
  A 0.79 0.59 15.1 0 1 1141.24 410.50
  Q 1141.09 420.83 1148.22 427.01
  Q 1151.40 429.76 1155.51 430.70
  Q 1159.72 431.65 1163.92 430.95
  Q 1170.09 429.91 1174.25 425.25
  Q 1178.70 420.25 1178.98 413.46
  Q 1179.25 407.12 1176.00 402.07
  Q 1172.67 396.90 1166.45 394.18"
/>
<path stroke="#808080" vector-effect="non-scaling-stroke" d="
  M 1084.99 358.09
  A 18.91 18.91 0.0 0 0 1066.08 339.18
  A 18.91 18.91 0.0 0 0 1047.17 358.09
  A 18.91 18.91 0.0 0 0 1066.08 377.00
  A 18.91 18.91 0.0 0 0 1084.99 358.09"
/>
<path stroke="#808080" vector-effect="non-scaling-stroke" d="
  M 827.42 386.71
  A 18.99 18.99 0.0 0 0 808.43 367.72
  A 18.99 18.99 0.0 0 0 789.44 386.71
  A 18.99 18.99 0.0 0 0 808.43 405.70
  A 18.99 18.99 0.0 0 0 827.42 386.71"
/>
<path stroke="#808080" vector-effect="non-scaling-stroke" d="
  M 581.80 424.59
  A 18.83 18.83 0.0 0 0 562.97 405.76
  A 18.83 18.83 0.0 0 0 544.14 424.59
  A 18.83 18.83 0.0 0 0 562.97 443.42
  A 18.83 18.83 0.0 0 0 581.80 424.59"
/>
<path stroke="#808080" vector-effect="non-scaling-stroke" d="
  M 915.35 436.83
  A 19.01 19.01 0.0 0 0 896.34 417.82
  A 19.01 19.01 0.0 0 0 877.33 436.83
  A 19.01 19.01 0.0 0 0 896.34 455.84
  A 19.01 19.01 0.0 0 0 915.35 436.83"
/>
<path stroke="#808080" vector-effect="non-scaling-stroke" d="
  M 666.87 470.81
  A 18.91 18.91 0.0 0 0 647.96 451.90
  A 18.91 18.91 0.0 0 0 629.05 470.81
  A 18.91 18.91 0.0 0 0 647.96 489.72
  A 18.91 18.91 0.0 0 0 666.87 470.81"
/>
<path stroke="#808080" vector-effect="non-scaling-stroke" d="
  M 420.19 514.17
  A 18.78 18.78 0.0 0 0 401.41 495.39
  A 18.78 18.78 0.0 0 0 382.63 514.17
  A 18.78 18.78 0.0 0 0 401.41 532.95
  A 18.78 18.78 0.0 0 0 420.19 514.17"
/>
<path stroke="#808080" vector-effect="non-scaling-stroke" d="
  M 752.27 516.74
  A 18.92 18.92 0.0 0 0 733.35 497.82
  A 18.92 18.92 0.0 0 0 714.43 516.74
  A 18.92 18.92 0.0 0 0 733.35 535.66
  A 18.92 18.92 0.0 0 0 752.27 516.74"
/>
<path stroke="#808080" vector-effect="non-scaling-stroke" d="
  M 504.2779 563.6028
  A 19.00 18.76 12.1 0 0 489.6324 541.2768
  A 19.00 18.76 12.1 0 0 467.1221 555.6372
  A 19.00 18.76 12.1 0 0 481.7676 577.9632
  A 19.00 18.76 12.1 0 0 504.2779 563.6028"
/>
<path stroke="#808080" vector-effect="non-scaling-stroke" d="
  M 837.67 563.06
  A 18.88 18.88 0.0 0 0 818.79 544.18
  A 18.88 18.88 0.0 0 0 799.91 563.06
  A 18.88 18.88 0.0 0 0 818.79 581.94
  A 18.88 18.88 0.0 0 0 837.67 563.06"
/>
<path stroke="#808080" vector-effect="non-scaling-stroke" d="
  M 278.56 593.09
  A 18.81 18.81 0.0 0 0 259.75 574.28
  A 18.81 18.81 0.0 0 0 240.94 593.09
  A 18.81 18.81 0.0 0 0 259.75 611.90
  A 18.81 18.81 0.0 0 0 278.56 593.09"
/>
<path stroke="#808080" vector-effect="non-scaling-stroke" d="
  M 588.75 604.87
  A 18.95 18.95 0.0 0 0 569.80 585.92
  A 18.95 18.95 0.0 0 0 550.85 604.87
  A 18.95 18.95 0.0 0 0 569.80 623.82
  A 18.95 18.95 0.0 0 0 588.75 604.87"
/>
<path stroke="#808080" vector-effect="non-scaling-stroke" d="
  M 360.39 638.23
  A 18.88 18.88 0.0 0 0 341.51 619.35
  A 18.88 18.88 0.0 0 0 322.63 638.23
  A 18.88 18.88 0.0 0 0 341.51 657.11
  A 18.88 18.88 0.0 0 0 360.39 638.23"
/>
<path stroke="#808080" vector-effect="non-scaling-stroke" d="
  M 673.20 650.38
  A 19.00 19.00 0.0 0 0 654.20 631.38
  A 19.00 19.00 0.0 0 0 635.20 650.38
  A 19.00 19.00 0.0 0 0 654.20 669.38
  A 19.00 19.00 0.0 0 0 673.20 650.38"
/>
<path stroke="#808080" vector-effect="non-scaling-stroke" d="
  M 140.54 669.57
  A 18.83 18.83 0.0 0 0 121.71 650.74
  A 18.83 18.83 0.0 0 0 102.88 669.57
  A 18.83 18.83 0.0 0 0 121.71 688.40
  A 18.83 18.83 0.0 0 0 140.54 669.57"
/>
<path stroke="#808080" vector-effect="non-scaling-stroke" d="
  M 442.40 683.49
  A 18.92 18.92 0.0 0 0 423.48 664.57
  A 18.92 18.92 0.0 0 0 404.56 683.49
  A 18.92 18.92 0.0 0 0 423.48 702.41
  A 18.92 18.92 0.0 0 0 442.40 683.49"
/>
<path stroke="#808080" vector-effect="non-scaling-stroke" d="
  M 227.17 717.59
  A 18.83 18.83 0.0 0 0 208.34 698.76
  A 18.83 18.83 0.0 0 0 189.51 717.59
  A 18.83 18.83 0.0 0 0 208.34 736.42
  A 18.83 18.83 0.0 0 0 227.17 717.59"
/>
<path stroke="#808080" vector-effect="non-scaling-stroke" d="
  M 524.16 728.45
  A 18.96 18.96 0.0 0 0 505.20 709.49
  A 18.96 18.96 0.0 0 0 486.24 728.45
  A 18.96 18.96 0.0 0 0 505.20 747.41
  A 18.96 18.96 0.0 0 0 524.16 728.45"
/>
<path stroke="#808080" vector-effect="non-scaling-stroke" d="
  M 312.2146 773.1256
  A 18.95 18.68 23.3 0 0 302.1988 748.4734
  A 18.95 18.68 23.3 0 0 277.4054 758.1344
  A 18.95 18.68 23.3 0 0 287.4212 782.7866
  A 18.95 18.68 23.3 0 0 312.2146 773.1256"
/>
<path stroke="#eef9ff" vector-effect="non-scaling-stroke" d="
  M 1090.95 536.26
  A 18.98 18.98 0.0 0 0 1071.97 517.28
  A 18.98 18.98 0.0 0 0 1052.99 536.26
  A 18.98 18.98 0.0 0 0 1071.97 555.24
  A 18.98 18.98 0.0 0 0 1090.95 536.26"
/>
<path stroke="#eef9ff" vector-effect="non-scaling-stroke" d="
  M 1179.02 586.10
  A 18.75 18.75 0.0 0 0 1160.27 567.35
  A 18.75 18.75 0.0 0 0 1141.52 586.10
  A 18.75 18.75 0.0 0 0 1160.27 604.85
  A 18.75 18.75 0.0 0 0 1179.02 586.10"
/>
<path stroke="#eef9ff" vector-effect="non-scaling-stroke" d="
  M 922.80 608.99
  A 18.92 18.92 0.0 0 0 903.88 590.07
  A 18.92 18.92 0.0 0 0 884.96 608.99
  A 18.92 18.92 0.0 0 0 903.88 627.91
  A 18.92 18.92 0.0 0 0 922.80 608.99"
/>
<path stroke="#eef9ff" vector-effect="non-scaling-stroke" d="
  M 994.4068 673.8649
  A 19.08 18.87 74.6 0 0 1007.5325 650.4590
  A 19.08 18.87 74.6 0 0 984.2732 637.0751
  A 19.08 18.87 74.6 0 0 971.1475 660.4810
  A 19.08 18.87 74.6 0 0 994.4068 673.8649"
/>
<path stroke="#eef9ff" vector-effect="non-scaling-stroke" d="
  M 757.39 695.76
  A 18.78 18.78 0.0 0 0 738.61 676.98
  A 18.78 18.78 0.0 0 0 719.83 695.76
  A 18.78 18.78 0.0 0 0 738.61 714.54
  A 18.78 18.78 0.0 0 0 757.39 695.76"
/>
<path stroke="#eef9ff" vector-effect="non-scaling-stroke" d="
  M 1093.65 701.70
  A 18.91 18.91 0.0 0 0 1074.74 682.79
  A 18.91 18.91 0.0 0 0 1055.83 701.70
  A 18.91 18.91 0.0 0 0 1074.74 720.61
  A 18.91 18.91 0.0 0 0 1093.65 701.70"
/>
<path stroke="#eef9ff" vector-effect="non-scaling-stroke" d="
  M 841.63 741.14
  A 18.87 18.87 0.0 0 0 822.76 722.27
  A 18.87 18.87 0.0 0 0 803.89 741.14
  A 18.87 18.87 0.0 0 0 822.76 760.01
  A 18.87 18.87 0.0 0 0 841.63 741.14"
/>
<path stroke="#eef9ff" vector-effect="non-scaling-stroke" d="
  M 1179.18 747.84
  A 18.81 18.81 0.0 0 0 1160.37 729.03
  A 18.81 18.81 0.0 0 0 1141.56 747.84
  A 18.81 18.81 0.0 0 0 1160.37 766.65
  A 18.81 18.81 0.0 0 0 1179.18 747.84"
/>
<path stroke="#eef9ff" vector-effect="non-scaling-stroke" d="
  M 603.4913 783.7488
  A 19.06 18.84 31.5 0 0 597.0839 757.7263
  A 19.06 18.84 31.5 0 0 570.9887 763.8312
  A 19.06 18.84 31.5 0 0 577.3961 789.8537
  A 19.06 18.84 31.5 0 0 603.4913 783.7488"
/>
<path stroke="#eef9ff" vector-effect="non-scaling-stroke" d="
  M 924.4956 794.8946
  A 19.15 18.82 25.7 0 0 915.4015 769.6317
  A 19.15 18.82 25.7 0 0 889.9844 778.2854
  A 19.15 18.82 25.7 0 0 899.0785 803.5483
  A 19.15 18.82 25.7 0 0 924.4956 794.8946"
/>
<path stroke="#eef9ff" vector-effect="non-scaling-stroke" d="
  M 687.74 819.09
  A 18.90 18.90 0.0 0 0 668.84 800.19
  A 18.90 18.90 0.0 0 0 649.94 819.09
  A 18.90 18.90 0.0 0 0 668.84 837.99
  A 18.90 18.90 0.0 0 0 687.74 819.09"
/>
<path stroke="#eef9ff" vector-effect="non-scaling-stroke" d="
  M 1010.33 831.93
  A 18.93 18.93 0.0 0 0 991.40 813.00
  A 18.93 18.93 0.0 0 0 972.47 831.93
  A 18.93 18.93 0.0 0 0 991.40 850.86
  A 18.93 18.93 0.0 0 0 1010.33 831.93"
/>
<path stroke="#eef9ff" vector-effect="non-scaling-stroke" d="
  M 486.56 861.93
  A 18.83 18.83 0.0 0 0 467.73 843.10
  A 18.83 18.83 0.0 0 0 448.90 861.93
  A 18.83 18.83 0.0 0 0 467.73 880.76
  A 18.83 18.83 0.0 0 0 486.56 861.93"
/>
<path stroke="#eef9ff" vector-effect="non-scaling-stroke" d="
  M 769.78 864.33
  A 18.93 18.93 0.0 0 0 750.85 845.40
  A 18.93 18.93 0.0 0 0 731.92 864.33
  A 18.93 18.93 0.0 0 0 750.85 883.26
  A 18.93 18.93 0.0 0 0 769.78 864.33"
/>
<path stroke="#eef9ff" vector-effect="non-scaling-stroke" d="
  M 1094.72 877.53
  A 18.92 18.92 0.0 0 0 1075.80 858.61
  A 18.92 18.92 0.0 0 0 1056.88 877.53
  A 18.92 18.92 0.0 0 0 1075.80 896.45
  A 18.92 18.92 0.0 0 0 1094.72 877.53"
/>
<path stroke="#eef9ff" vector-effect="non-scaling-stroke" d="
  M 851.42 909.66
  A 18.87 18.87 0.0 0 0 832.55 890.79
  A 18.87 18.87 0.0 0 0 813.68 909.66
  A 18.87 18.87 0.0 0 0 832.55 928.53
  A 18.87 18.87 0.0 0 0 851.42 909.66"
/>
<path stroke="#eef9ff" vector-effect="non-scaling-stroke" d="
  M 573.05 909.76
  A 18.81 18.81 0.0 0 0 554.24 890.95
  A 18.81 18.81 0.0 0 0 535.43 909.76
  A 18.81 18.81 0.0 0 0 554.24 928.57
  A 18.81 18.81 0.0 0 0 573.05 909.76"
/>
<path stroke="#eef9ff" vector-effect="non-scaling-stroke" d="
  M 1165.0433 941.3192
  A 19.01 18.76 75.8 0 0 1178.5668 918.2880
  A 19.01 18.76 75.8 0 0 1155.7167 904.4608
  A 19.01 18.76 75.8 0 0 1142.1932 927.4920
  A 19.01 18.76 75.8 0 0 1165.0433 941.3192"
/>
<path stroke="#eef9ff" vector-effect="non-scaling-stroke" d="
  M 933.33 954.87
  A 18.84 18.84 0.0 0 0 914.49 936.03
  A 18.84 18.84 0.0 0 0 895.65 954.87
  A 18.84 18.84 0.0 0 0 914.49 973.71
  A 18.84 18.84 0.0 0 0 933.33 954.87"
/>
<path stroke="#eef9ff" vector-effect="non-scaling-stroke" d="
  M 659.0047 963.6121
  A 18.91 18.61 17.9 0 0 646.7299 940.0908
  A 18.91 18.61 17.9 0 0 623.0153 951.9879
  A 18.91 18.61 17.9 0 0 635.2901 975.5092
  A 18.91 18.61 17.9 0 0 659.0047 963.6121"
/>
<path stroke="#eef9ff" vector-effect="non-scaling-stroke" d="
  M 1015.44 999.86
  A 18.94 18.94 0.0 0 0 996.50 980.92
  A 18.94 18.94 0.0 0 0 977.56 999.86
  A 18.94 18.94 0.0 0 0 996.50 1018.80
  A 18.94 18.94 0.0 0 0 1015.44 999.86"
/>
<path stroke="#eef9ff" vector-effect="non-scaling-stroke" d="
  M 746.36 1006.06
  A 18.89 18.89 0.0 0 0 727.47 987.17
  A 18.89 18.89 0.0 0 0 708.58 1006.06
  A 18.89 18.89 0.0 0 0 727.47 1024.95
  A 18.89 18.89 0.0 0 0 746.36 1006.06"
/>
<path stroke="#eef9ff" vector-effect="non-scaling-stroke" d="
  M 1097.15 1045.21
  A 18.95 18.95 0.0 0 0 1078.20 1026.26
  A 18.95 18.95 0.0 0 0 1059.25 1045.21
  A 18.95 18.95 0.0 0 0 1078.20 1064.16
  A 18.95 18.95 0.0 0 0 1097.15 1045.21"
/>
<path stroke="#eef9ff" vector-effect="non-scaling-stroke" d="
  M 832.70 1053.87
  A 18.76 18.76 0.0 0 0 813.94 1035.11
  A 18.76 18.76 0.0 0 0 795.18 1053.87
  A 18.76 18.76 0.0 0 0 813.94 1072.63
  A 18.76 18.76 0.0 0 0 832.70 1053.87"
/>
<path stroke="#eef9ff" vector-effect="non-scaling-stroke" d="
  M 1179.14 1090.25
  A 18.82 18.82 0.0 0 0 1160.32 1071.43
  A 18.82 18.82 0.0 0 0 1141.50 1090.25
  A 18.82 18.82 0.0 0 0 1160.32 1109.07
  A 18.82 18.82 0.0 0 0 1179.14 1090.25"
/>
<path stroke="#eef9ff" vector-effect="non-scaling-stroke" d="
  M 919.3215 1104.3410
  A 19.03 18.63 7.4 0 0 902.8495 1083.4152
  A 19.03 18.63 7.4 0 0 881.5785 1099.4390
  A 19.03 18.63 7.4 0 0 898.0505 1120.3648
  A 19.03 18.63 7.4 0 0 919.3215 1104.3410"
/>
<path stroke="#eef9ff" vector-effect="non-scaling-stroke" d="
  M 1005.73 1150.11
  A 18.84 18.84 0.0 0 0 986.89 1131.27
  A 18.84 18.84 0.0 0 0 968.05 1150.11
  A 18.84 18.84 0.0 0 0 986.89 1168.95
  A 18.84 18.84 0.0 0 0 1005.73 1150.11"
/>
<path stroke="#eef9ff" vector-effect="non-scaling-stroke" d="
  M 1092.53 1198.22
  A 18.89 18.89 0.0 0 0 1073.64 1179.33
  A 18.89 18.89 0.0 0 0 1054.75 1198.22
  A 18.89 18.89 0.0 0 0 1073.64 1217.11
  A 18.89 18.89 0.0 0 0 1092.53 1198.22"
/>
<path stroke="#eef9ff" vector-effect="non-scaling-stroke" d="
  M 1179.06 1246.38
  A 18.77 18.77 0.0 0 0 1160.29 1227.61
  A 18.77 18.77 0.0 0 0 1141.52 1246.38
  A 18.77 18.77 0.0 0 0 1160.29 1265.15
  A 18.77 18.77 0.0 0 0 1179.06 1246.38"
/>
</g>
<path fill="#000000" d="
  M 0.00 0.00
  L 1357.00 0.00
  L 1357.00 1543.00
  L 0.00 1543.00
  L 0.00 0.00
  Z
  M 1185.8599 94.3331
  A 19.16 18.32 -0.2 0 0 1166.6361 76.0801
  A 19.16 18.32 -0.2 0 0 1147.5401 94.4669
  A 19.16 18.32 -0.2 0 0 1166.7639 112.7199
  A 19.16 18.32 -0.2 0 0 1185.8599 94.3331
  Z
  M 1043.61 167.92
  A 18.81 18.81 0.0 0 0 1024.80 149.11
  A 18.81 18.81 0.0 0 0 1005.99 167.92
  A 18.81 18.81 0.0 0 0 1024.80 186.73
  A 18.81 18.81 0.0 0 0 1043.61 167.92
  Z
  M 1111.27 202.80
  A 18.99 18.99 0.0 0 0 1092.28 183.81
  A 18.99 18.99 0.0 0 0 1073.29 202.80
  A 18.99 18.99 0.0 0 0 1092.28 221.79
  A 18.99 18.99 0.0 0 0 1111.27 202.80
  Z
  M 1179.18 237.61
  A 18.85 18.85 0.0 0 0 1160.33 218.76
  A 18.85 18.85 0.0 0 0 1141.48 237.61
  A 18.85 18.85 0.0 0 0 1160.33 256.46
  A 18.85 18.85 0.0 0 0 1179.18 237.61
  Z
  M 897.51 249.24
  A 18.84 18.84 0.0 0 0 878.67 230.40
  A 18.84 18.84 0.0 0 0 859.83 249.24
  A 18.84 18.84 0.0 0 0 878.67 268.08
  A 18.84 18.84 0.0 0 0 897.51 249.24
  Z
  M 991.21 303.82
  A 18.88 18.88 0.0 0 0 972.33 284.94
  A 18.88 18.88 0.0 0 0 953.45 303.82
  A 18.88 18.88 0.0 0 0 972.33 322.70
  A 18.88 18.88 0.0 0 0 991.21 303.82
  Z
  M 739.61 336.71
  A 18.79 18.79 0.0 0 0 720.82 317.92
  A 18.79 18.79 0.0 0 0 702.03 336.71
  A 18.79 18.79 0.0 0 0 720.82 355.50
  A 18.79 18.79 0.0 0 0 739.61 336.71
  Z
  M 1166.45 394.18
  Q 1150.41 391.10 1143.24 404.73
  Q 1143.21 404.77 1142.56 406.46
  Q 1141.95 408.06 1140.25 408.79
  Q 1060.65 452.66 1005.19 483.69
  Q 1004.05 484.32 1002.86 484.52
  Q 1001.85 474.25 993.75 470.00
  Q 986.73 466.32 979.02 468.32
  Q 969.99 470.66 966.67 479.36
  Q 962.92 489.17 969.00 497.55
  Q 970.75 499.97 972.45 501.83
  L 399.41 820.02
  Q 401.64 812.67 398.69 806.31
  Q 394.67 797.68 386.33 795.60
  Q 378.75 793.72 371.65 797.74
  Q 363.27 802.48 362.67 812.58
  Q 362.26 819.62 365.82 824.75
  Q 369.66 830.29 376.79 832.50
  L 241.92 907.50
  Q 241.51 907.73 241.92 907.96
  L 1279.51 1484.51
  A 0.29 0.29 -76.0 0 0 1279.94 1484.25
  L 1280.06 331.83
  A 0.51 0.51 75.4 0 0 1279.30 331.38
  L 1166.45 394.18
  Z
  M 1084.99 358.09
  A 18.91 18.91 0.0 0 0 1066.08 339.18
  A 18.91 18.91 0.0 0 0 1047.17 358.09
  A 18.91 18.91 0.0 0 0 1066.08 377.00
  A 18.91 18.91 0.0 0 0 1084.99 358.09
  Z
  M 827.42 386.71
  A 18.99 18.99 0.0 0 0 808.43 367.72
  A 18.99 18.99 0.0 0 0 789.44 386.71
  A 18.99 18.99 0.0 0 0 808.43 405.70
  A 18.99 18.99 0.0 0 0 827.42 386.71
  Z
  M 581.80 424.59
  A 18.83 18.83 0.0 0 0 562.97 405.76
  A 18.83 18.83 0.0 0 0 544.14 424.59
  A 18.83 18.83 0.0 0 0 562.97 443.42
  A 18.83 18.83 0.0 0 0 581.80 424.59
  Z
  M 915.35 436.83
  A 19.01 19.01 0.0 0 0 896.34 417.82
  A 19.01 19.01 0.0 0 0 877.33 436.83
  A 19.01 19.01 0.0 0 0 896.34 455.84
  A 19.01 19.01 0.0 0 0 915.35 436.83
  Z
  M 666.87 470.81
  A 18.91 18.91 0.0 0 0 647.96 451.90
  A 18.91 18.91 0.0 0 0 629.05 470.81
  A 18.91 18.91 0.0 0 0 647.96 489.72
  A 18.91 18.91 0.0 0 0 666.87 470.81
  Z
  M 420.19 514.17
  A 18.78 18.78 0.0 0 0 401.41 495.39
  A 18.78 18.78 0.0 0 0 382.63 514.17
  A 18.78 18.78 0.0 0 0 401.41 532.95
  A 18.78 18.78 0.0 0 0 420.19 514.17
  Z
  M 752.27 516.74
  A 18.92 18.92 0.0 0 0 733.35 497.82
  A 18.92 18.92 0.0 0 0 714.43 516.74
  A 18.92 18.92 0.0 0 0 733.35 535.66
  A 18.92 18.92 0.0 0 0 752.27 516.74
  Z
  M 504.2779 563.6028
  A 19.00 18.76 12.1 0 0 489.6324 541.2768
  A 19.00 18.76 12.1 0 0 467.1221 555.6372
  A 19.00 18.76 12.1 0 0 481.7676 577.9632
  A 19.00 18.76 12.1 0 0 504.2779 563.6028
  Z
  M 837.67 563.06
  A 18.88 18.88 0.0 0 0 818.79 544.18
  A 18.88 18.88 0.0 0 0 799.91 563.06
  A 18.88 18.88 0.0 0 0 818.79 581.94
  A 18.88 18.88 0.0 0 0 837.67 563.06
  Z
  M 278.56 593.09
  A 18.81 18.81 0.0 0 0 259.75 574.28
  A 18.81 18.81 0.0 0 0 240.94 593.09
  A 18.81 18.81 0.0 0 0 259.75 611.90
  A 18.81 18.81 0.0 0 0 278.56 593.09
  Z
  M 588.75 604.87
  A 18.95 18.95 0.0 0 0 569.80 585.92
  A 18.95 18.95 0.0 0 0 550.85 604.87
  A 18.95 18.95 0.0 0 0 569.80 623.82
  A 18.95 18.95 0.0 0 0 588.75 604.87
  Z
  M 360.39 638.23
  A 18.88 18.88 0.0 0 0 341.51 619.35
  A 18.88 18.88 0.0 0 0 322.63 638.23
  A 18.88 18.88 0.0 0 0 341.51 657.11
  A 18.88 18.88 0.0 0 0 360.39 638.23
  Z
  M 673.20 650.38
  A 19.00 19.00 0.0 0 0 654.20 631.38
  A 19.00 19.00 0.0 0 0 635.20 650.38
  A 19.00 19.00 0.0 0 0 654.20 669.38
  A 19.00 19.00 0.0 0 0 673.20 650.38
  Z
  M 140.54 669.57
  A 18.83 18.83 0.0 0 0 121.71 650.74
  A 18.83 18.83 0.0 0 0 102.88 669.57
  A 18.83 18.83 0.0 0 0 121.71 688.40
  A 18.83 18.83 0.0 0 0 140.54 669.57
  Z
  M 442.40 683.49
  A 18.92 18.92 0.0 0 0 423.48 664.57
  A 18.92 18.92 0.0 0 0 404.56 683.49
  A 18.92 18.92 0.0 0 0 423.48 702.41
  A 18.92 18.92 0.0 0 0 442.40 683.49
  Z
  M 227.17 717.59
  A 18.83 18.83 0.0 0 0 208.34 698.76
  A 18.83 18.83 0.0 0 0 189.51 717.59
  A 18.83 18.83 0.0 0 0 208.34 736.42
  A 18.83 18.83 0.0 0 0 227.17 717.59
  Z
  M 524.16 728.45
  A 18.96 18.96 0.0 0 0 505.20 709.49
  A 18.96 18.96 0.0 0 0 486.24 728.45
  A 18.96 18.96 0.0 0 0 505.20 747.41
  A 18.96 18.96 0.0 0 0 524.16 728.45
  Z
  M 312.2146 773.1256
  A 18.95 18.68 23.3 0 0 302.1988 748.4734
  A 18.95 18.68 23.3 0 0 277.4054 758.1344
  A 18.95 18.68 23.3 0 0 287.4212 782.7866
  A 18.95 18.68 23.3 0 0 312.2146 773.1256
  Z"
/>
<ellipse fill="#ffffff" cx="0.00" cy="0.00" transform="translate(1166.70,94.40) rotate(-0.2)" rx="19.16" ry="18.32"/>
<circle fill="#ffffff" cx="1024.80" cy="167.92" r="18.81"/>
<circle fill="#ffffff" cx="1092.28" cy="202.80" r="18.99"/>
<circle fill="#ffffff" cx="1160.33" cy="237.61" r="18.85"/>
<circle fill="#ffffff" cx="878.67" cy="249.24" r="18.84"/>
<circle fill="#ffffff" cx="972.33" cy="303.82" r="18.88"/>
<circle fill="#ffffff" cx="720.82" cy="336.71" r="18.79"/>
<path fill="#dcf2ff" d="
  M 376.79 832.50
  Q 392.77 834.60 399.41 820.02
  L 972.45 501.83
  Q 983.86 508.97 993.80 503.02
  Q 998.74 500.07 1001.08 495.42
  Q 1003.56 490.49 1002.86 484.52
  Q 1004.05 484.32 1005.19 483.69
  Q 1060.65 452.66 1140.25 408.79
  Q 1140.14 409.62 1140.76 409.89
  A 0.79 0.59 15.1 0 1 1141.24 410.50
  Q 1141.09 420.83 1148.22 427.01
  Q 1151.40 429.76 1155.51 430.70
  Q 1159.72 431.65 1163.92 430.95
  Q 1170.09 429.91 1174.25 425.25
  Q 1178.70 420.25 1178.98 413.46
  Q 1179.25 407.12 1176.00 402.07
  Q 1172.67 396.90 1166.45 394.18
  L 1279.30 331.38
  A 0.51 0.51 75.4 0 1 1280.06 331.83
  L 1279.94 1484.25
  A 0.29 0.29 -76.0 0 1 1279.51 1484.51
  L 241.92 907.96
  Q 241.51 907.73 241.92 907.50
  L 376.79 832.50
  Z
  M 1090.95 536.26
  A 18.98 18.98 0.0 0 0 1071.97 517.28
  A 18.98 18.98 0.0 0 0 1052.99 536.26
  A 18.98 18.98 0.0 0 0 1071.97 555.24
  A 18.98 18.98 0.0 0 0 1090.95 536.26
  Z
  M 1179.02 586.10
  A 18.75 18.75 0.0 0 0 1160.27 567.35
  A 18.75 18.75 0.0 0 0 1141.52 586.10
  A 18.75 18.75 0.0 0 0 1160.27 604.85
  A 18.75 18.75 0.0 0 0 1179.02 586.10
  Z
  M 922.80 608.99
  A 18.92 18.92 0.0 0 0 903.88 590.07
  A 18.92 18.92 0.0 0 0 884.96 608.99
  A 18.92 18.92 0.0 0 0 903.88 627.91
  A 18.92 18.92 0.0 0 0 922.80 608.99
  Z
  M 994.4068 673.8649
  A 19.08 18.87 74.6 0 0 1007.5325 650.4590
  A 19.08 18.87 74.6 0 0 984.2732 637.0751
  A 19.08 18.87 74.6 0 0 971.1475 660.4810
  A 19.08 18.87 74.6 0 0 994.4068 673.8649
  Z
  M 757.39 695.76
  A 18.78 18.78 0.0 0 0 738.61 676.98
  A 18.78 18.78 0.0 0 0 719.83 695.76
  A 18.78 18.78 0.0 0 0 738.61 714.54
  A 18.78 18.78 0.0 0 0 757.39 695.76
  Z
  M 1093.65 701.70
  A 18.91 18.91 0.0 0 0 1074.74 682.79
  A 18.91 18.91 0.0 0 0 1055.83 701.70
  A 18.91 18.91 0.0 0 0 1074.74 720.61
  A 18.91 18.91 0.0 0 0 1093.65 701.70
  Z
  M 841.63 741.14
  A 18.87 18.87 0.0 0 0 822.76 722.27
  A 18.87 18.87 0.0 0 0 803.89 741.14
  A 18.87 18.87 0.0 0 0 822.76 760.01
  A 18.87 18.87 0.0 0 0 841.63 741.14
  Z
  M 1179.18 747.84
  A 18.81 18.81 0.0 0 0 1160.37 729.03
  A 18.81 18.81 0.0 0 0 1141.56 747.84
  A 18.81 18.81 0.0 0 0 1160.37 766.65
  A 18.81 18.81 0.0 0 0 1179.18 747.84
  Z
  M 603.4913 783.7488
  A 19.06 18.84 31.5 0 0 597.0839 757.7263
  A 19.06 18.84 31.5 0 0 570.9887 763.8312
  A 19.06 18.84 31.5 0 0 577.3961 789.8537
  A 19.06 18.84 31.5 0 0 603.4913 783.7488
  Z
  M 924.4956 794.8946
  A 19.15 18.82 25.7 0 0 915.4015 769.6317
  A 19.15 18.82 25.7 0 0 889.9844 778.2854
  A 19.15 18.82 25.7 0 0 899.0785 803.5483
  A 19.15 18.82 25.7 0 0 924.4956 794.8946
  Z
  M 687.74 819.09
  A 18.90 18.90 0.0 0 0 668.84 800.19
  A 18.90 18.90 0.0 0 0 649.94 819.09
  A 18.90 18.90 0.0 0 0 668.84 837.99
  A 18.90 18.90 0.0 0 0 687.74 819.09
  Z
  M 1010.33 831.93
  A 18.93 18.93 0.0 0 0 991.40 813.00
  A 18.93 18.93 0.0 0 0 972.47 831.93
  A 18.93 18.93 0.0 0 0 991.40 850.86
  A 18.93 18.93 0.0 0 0 1010.33 831.93
  Z
  M 486.56 861.93
  A 18.83 18.83 0.0 0 0 467.73 843.10
  A 18.83 18.83 0.0 0 0 448.90 861.93
  A 18.83 18.83 0.0 0 0 467.73 880.76
  A 18.83 18.83 0.0 0 0 486.56 861.93
  Z
  M 769.78 864.33
  A 18.93 18.93 0.0 0 0 750.85 845.40
  A 18.93 18.93 0.0 0 0 731.92 864.33
  A 18.93 18.93 0.0 0 0 750.85 883.26
  A 18.93 18.93 0.0 0 0 769.78 864.33
  Z
  M 1094.72 877.53
  A 18.92 18.92 0.0 0 0 1075.80 858.61
  A 18.92 18.92 0.0 0 0 1056.88 877.53
  A 18.92 18.92 0.0 0 0 1075.80 896.45
  A 18.92 18.92 0.0 0 0 1094.72 877.53
  Z
  M 851.42 909.66
  A 18.87 18.87 0.0 0 0 832.55 890.79
  A 18.87 18.87 0.0 0 0 813.68 909.66
  A 18.87 18.87 0.0 0 0 832.55 928.53
  A 18.87 18.87 0.0 0 0 851.42 909.66
  Z
  M 573.05 909.76
  A 18.81 18.81 0.0 0 0 554.24 890.95
  A 18.81 18.81 0.0 0 0 535.43 909.76
  A 18.81 18.81 0.0 0 0 554.24 928.57
  A 18.81 18.81 0.0 0 0 573.05 909.76
  Z
  M 1165.0433 941.3192
  A 19.01 18.76 75.8 0 0 1178.5668 918.2880
  A 19.01 18.76 75.8 0 0 1155.7167 904.4608
  A 19.01 18.76 75.8 0 0 1142.1932 927.4920
  A 19.01 18.76 75.8 0 0 1165.0433 941.3192
  Z
  M 933.33 954.87
  A 18.84 18.84 0.0 0 0 914.49 936.03
  A 18.84 18.84 0.0 0 0 895.65 954.87
  A 18.84 18.84 0.0 0 0 914.49 973.71
  A 18.84 18.84 0.0 0 0 933.33 954.87
  Z
  M 659.0047 963.6121
  A 18.91 18.61 17.9 0 0 646.7299 940.0908
  A 18.91 18.61 17.9 0 0 623.0153 951.9879
  A 18.91 18.61 17.9 0 0 635.2901 975.5092
  A 18.91 18.61 17.9 0 0 659.0047 963.6121
  Z
  M 1015.44 999.86
  A 18.94 18.94 0.0 0 0 996.50 980.92
  A 18.94 18.94 0.0 0 0 977.56 999.86
  A 18.94 18.94 0.0 0 0 996.50 1018.80
  A 18.94 18.94 0.0 0 0 1015.44 999.86
  Z
  M 746.36 1006.06
  A 18.89 18.89 0.0 0 0 727.47 987.17
  A 18.89 18.89 0.0 0 0 708.58 1006.06
  A 18.89 18.89 0.0 0 0 727.47 1024.95
  A 18.89 18.89 0.0 0 0 746.36 1006.06
  Z
  M 1097.15 1045.21
  A 18.95 18.95 0.0 0 0 1078.20 1026.26
  A 18.95 18.95 0.0 0 0 1059.25 1045.21
  A 18.95 18.95 0.0 0 0 1078.20 1064.16
  A 18.95 18.95 0.0 0 0 1097.15 1045.21
  Z
  M 832.70 1053.87
  A 18.76 18.76 0.0 0 0 813.94 1035.11
  A 18.76 18.76 0.0 0 0 795.18 1053.87
  A 18.76 18.76 0.0 0 0 813.94 1072.63
  A 18.76 18.76 0.0 0 0 832.70 1053.87
  Z
  M 1179.14 1090.25
  A 18.82 18.82 0.0 0 0 1160.32 1071.43
  A 18.82 18.82 0.0 0 0 1141.50 1090.25
  A 18.82 18.82 0.0 0 0 1160.32 1109.07
  A 18.82 18.82 0.0 0 0 1179.14 1090.25
  Z
  M 919.3215 1104.3410
  A 19.03 18.63 7.4 0 0 902.8495 1083.4152
  A 19.03 18.63 7.4 0 0 881.5785 1099.4390
  A 19.03 18.63 7.4 0 0 898.0505 1120.3648
  A 19.03 18.63 7.4 0 0 919.3215 1104.3410
  Z
  M 1005.73 1150.11
  A 18.84 18.84 0.0 0 0 986.89 1131.27
  A 18.84 18.84 0.0 0 0 968.05 1150.11
  A 18.84 18.84 0.0 0 0 986.89 1168.95
  A 18.84 18.84 0.0 0 0 1005.73 1150.11
  Z
  M 1092.53 1198.22
  A 18.89 18.89 0.0 0 0 1073.64 1179.33
  A 18.89 18.89 0.0 0 0 1054.75 1198.22
  A 18.89 18.89 0.0 0 0 1073.64 1217.11
  A 18.89 18.89 0.0 0 0 1092.53 1198.22
  Z
  M 1179.06 1246.38
  A 18.77 18.77 0.0 0 0 1160.29 1227.61
  A 18.77 18.77 0.0 0 0 1141.52 1246.38
  A 18.77 18.77 0.0 0 0 1160.29 1265.15
  A 18.77 18.77 0.0 0 0 1179.06 1246.38
  Z"
/>
<circle fill="#ffffff" cx="1066.08" cy="358.09" r="18.91"/>
<circle fill="#ffffff" cx="808.43" cy="386.71" r="18.99"/>
<path fill="#ffffff" d="
  M 1166.45 394.18
  Q 1172.67 396.90 1176.00 402.07
  Q 1179.25 407.12 1178.98 413.46
  Q 1178.70 420.25 1174.25 425.25
  Q 1170.09 429.91 1163.92 430.95
  Q 1159.72 431.65 1155.51 430.70
  Q 1151.40 429.76 1148.22 427.01
  Q 1141.09 420.83 1141.24 410.50
  A 0.79 0.59 15.1 0 0 1140.76 409.89
  Q 1140.14 409.62 1140.25 408.79
  Q 1141.95 408.06 1142.56 406.46
  Q 1143.21 404.77 1143.24 404.73
  Q 1150.41 391.10 1166.45 394.18
  Z"
/>
<circle fill="#ffffff" cx="562.97" cy="424.59" r="18.83"/>
<circle fill="#ffffff" cx="896.34" cy="436.83" r="19.01"/>
<circle fill="#ffffff" cx="647.96" cy="470.81" r="18.91"/>
<path fill="#ffffff" d="
  M 1002.86 484.52
  Q 1003.56 490.49 1001.08 495.42
  Q 998.74 500.07 993.80 503.02
  Q 983.86 508.97 972.45 501.83
  Q 970.75 499.97 969.00 497.55
  Q 962.92 489.17 966.67 479.36
  Q 969.99 470.66 979.02 468.32
  Q 986.73 466.32 993.75 470.00
  Q 1001.85 474.25 1002.86 484.52
  Z"
/>
<circle fill="#ffffff" cx="401.41" cy="514.17" r="18.78"/>
<circle fill="#ffffff" cx="733.35" cy="516.74" r="18.92"/>
<circle fill="#ffffff" cx="1071.97" cy="536.26" r="18.98"/>
<ellipse fill="#ffffff" cx="0.00" cy="0.00" transform="translate(485.70,559.62) rotate(12.1)" rx="19.00" ry="18.76"/>
<circle fill="#ffffff" cx="818.79" cy="563.06" r="18.88"/>
<circle fill="#ffffff" cx="1160.27" cy="586.10" r="18.75"/>
<circle fill="#ffffff" cx="259.75" cy="593.09" r="18.81"/>
<circle fill="#ffffff" cx="569.80" cy="604.87" r="18.95"/>
<circle fill="#ffffff" cx="903.88" cy="608.99" r="18.92"/>
<circle fill="#ffffff" cx="341.51" cy="638.23" r="18.88"/>
<circle fill="#ffffff" cx="654.20" cy="650.38" r="19.00"/>
<ellipse fill="#ffffff" cx="0.00" cy="0.00" transform="translate(989.34,655.47) rotate(74.6)" rx="19.08" ry="18.87"/>
<circle fill="#ffffff" cx="121.71" cy="669.57" r="18.83"/>
<circle fill="#ffffff" cx="423.48" cy="683.49" r="18.92"/>
<circle fill="#ffffff" cx="738.61" cy="695.76" r="18.78"/>
<circle fill="#ffffff" cx="1074.74" cy="701.70" r="18.91"/>
<circle fill="#ffffff" cx="208.34" cy="717.59" r="18.83"/>
<circle fill="#ffffff" cx="505.20" cy="728.45" r="18.96"/>
<circle fill="#ffffff" cx="822.76" cy="741.14" r="18.87"/>
<circle fill="#ffffff" cx="1160.37" cy="747.84" r="18.81"/>
<ellipse fill="#ffffff" cx="0.00" cy="0.00" transform="translate(294.81,765.63) rotate(23.3)" rx="18.95" ry="18.68"/>
<ellipse fill="#ffffff" cx="0.00" cy="0.00" transform="translate(587.24,773.79) rotate(31.5)" rx="19.06" ry="18.84"/>
<ellipse fill="#ffffff" cx="0.00" cy="0.00" transform="translate(907.24,786.59) rotate(25.7)" rx="19.15" ry="18.82"/>
<path fill="#ffffff" d="
  M 399.41 820.02
  Q 392.77 834.60 376.79 832.50
  Q 369.66 830.29 365.82 824.75
  Q 362.26 819.62 362.67 812.58
  Q 363.27 802.48 371.65 797.74
  Q 378.75 793.72 386.33 795.60
  Q 394.67 797.68 398.69 806.31
  Q 401.64 812.67 399.41 820.02
  Z"
/>
<circle fill="#ffffff" cx="668.84" cy="819.09" r="18.90"/>
<circle fill="#ffffff" cx="991.40" cy="831.93" r="18.93"/>
<circle fill="#ffffff" cx="467.73" cy="861.93" r="18.83"/>
<circle fill="#ffffff" cx="750.85" cy="864.33" r="18.93"/>
<circle fill="#ffffff" cx="1075.80" cy="877.53" r="18.92"/>
<circle fill="#ffffff" cx="832.55" cy="909.66" r="18.87"/>
<circle fill="#ffffff" cx="554.24" cy="909.76" r="18.81"/>
<ellipse fill="#ffffff" cx="0.00" cy="0.00" transform="translate(1160.38,922.89) rotate(75.8)" rx="19.01" ry="18.76"/>
<circle fill="#ffffff" cx="914.49" cy="954.87" r="18.84"/>
<ellipse fill="#ffffff" cx="0.00" cy="0.00" transform="translate(641.01,957.80) rotate(17.9)" rx="18.91" ry="18.61"/>
<circle fill="#ffffff" cx="996.50" cy="999.86" r="18.94"/>
<circle fill="#ffffff" cx="727.47" cy="1006.06" r="18.89"/>
<circle fill="#ffffff" cx="1078.20" cy="1045.21" r="18.95"/>
<circle fill="#ffffff" cx="813.94" cy="1053.87" r="18.76"/>
<circle fill="#ffffff" cx="1160.32" cy="1090.25" r="18.82"/>
<ellipse fill="#ffffff" cx="0.00" cy="0.00" transform="translate(900.45,1101.89) rotate(7.4)" rx="19.03" ry="18.63"/>
<circle fill="#ffffff" cx="986.89" cy="1150.11" r="18.84"/>
<circle fill="#ffffff" cx="1073.64" cy="1198.22" r="18.89"/>
<circle fill="#ffffff" cx="1160.29" cy="1246.38" r="18.77"/>
</svg>
