<?xml version="1.0" encoding="UTF-8" standalone="no"?>
<!DOCTYPE svg PUBLIC "-//W3C//DTD SVG 1.1//EN" "http://www.w3.org/Graphics/SVG/1.1/DTD/svg11.dtd">
<svg xmlns="http://www.w3.org/2000/svg" version="1.1" viewBox="0 0 1536 1365">
<g stroke-width="2.00" fill="none" stroke-linecap="butt">
<path stroke="#808080" vector-effect="non-scaling-stroke" d="
  M 400.40 202.50
  A 39.77 39.77 0.0 0 0 360.63 162.73
  A 39.77 39.77 0.0 0 0 320.86 202.50
  A 39.77 39.77 0.0 0 0 360.63 242.27
  A 39.77 39.77 0.0 0 0 400.40 202.50"
/>
<path stroke="#808080" vector-effect="non-scaling-stroke" d="
  M 671.90 202.44
  A 39.76 39.76 0.0 0 0 632.14 162.68
  A 39.76 39.76 0.0 0 0 592.38 202.44
  A 39.76 39.76 0.0 0 0 632.14 242.20
  A 39.76 39.76 0.0 0 0 671.90 202.44"
/>
<path stroke="#808080" vector-effect="non-scaling-stroke" d="
  M 943.73 202.50
  A 39.77 39.77 0.0 0 0 903.96 162.73
  A 39.77 39.77 0.0 0 0 864.19 202.50
  A 39.77 39.77 0.0 0 0 903.96 242.27
  A 39.77 39.77 0.0 0 0 943.73 202.50"
/>
<path stroke="#808080" vector-effect="non-scaling-stroke" d="
  M 1215.30 202.43
  A 39.78 39.78 0.0 0 0 1175.52 162.65
  A 39.78 39.78 0.0 0 0 1135.74 202.43
  A 39.78 39.78 0.0 0 0 1175.52 242.21
  A 39.78 39.78 0.0 0 0 1215.30 202.43"
/>
<path stroke="#808080" vector-effect="non-scaling-stroke" d="
  M 400.47 522.33
  A 39.80 39.80 0.0 0 0 360.67 482.53
  A 39.80 39.80 0.0 0 0 320.87 522.33
  A 39.80 39.80 0.0 0 0 360.67 562.13
  A 39.80 39.80 0.0 0 0 400.47 522.33"
/>
<path stroke="#808080" vector-effect="non-scaling-stroke" d="
  M 671.98 522.30
  A 39.84 39.84 0.0 0 0 632.14 482.46
  A 39.84 39.84 0.0 0 0 592.30 522.30
  A 39.84 39.84 0.0 0 0 632.14 562.14
  A 39.84 39.84 0.0 0 0 671.98 522.30"
/>
<path stroke="#808080" vector-effect="non-scaling-stroke" d="
  M 943.79 522.33
  A 39.83 39.83 0.0 0 0 903.96 482.50
  A 39.83 39.83 0.0 0 0 864.13 522.33
  A 39.83 39.83 0.0 0 0 903.96 562.16
  A 39.83 39.83 0.0 0 0 943.79 522.33"
/>
<path stroke="#808080" vector-effect="non-scaling-stroke" d="
  M 1215.29 522.33
  A 39.83 39.83 0.0 0 0 1175.46 482.50
  A 39.83 39.83 0.0 0 0 1135.63 522.33
  A 39.83 39.83 0.0 0 0 1175.46 562.16
  A 39.83 39.83 0.0 0 0 1215.29 522.33"
/>
<path stroke="#808080" vector-effect="non-scaling-stroke" d="
  M 400.42 842.48
  A 39.78 39.78 0.0 0 0 360.64 802.70
  A 39.78 39.78 0.0 0 0 320.86 842.48
  A 39.78 39.78 0.0 0 0 360.64 882.26
  A 39.78 39.78 0.0 0 0 400.42 842.48"
/>
<path stroke="#808080" vector-effect="non-scaling-stroke" d="
  M 671.96 842.47
  A 39.80 39.80 0.0 0 0 632.16 802.67
  A 39.80 39.80 0.0 0 0 592.36 842.47
  A 39.80 39.80 0.0 0 0 632.16 882.27
  A 39.80 39.80 0.0 0 0 671.96 842.47"
/>
<path stroke="#808080" vector-effect="non-scaling-stroke" d="
  M 943.76 842.49
  A 39.78 39.78 0.0 0 0 903.98 802.71
  A 39.78 39.78 0.0 0 0 864.20 842.49
  A 39.78 39.78 0.0 0 0 903.98 882.27
  A 39.78 39.78 0.0 0 0 943.76 842.49"
/>
<path stroke="#808080" vector-effect="non-scaling-stroke" d="
  M 1215.26 842.50
  A 39.79 39.79 0.0 0 0 1175.47 802.71
  A 39.79 39.79 0.0 0 0 1135.68 842.50
  A 39.79 39.79 0.0 0 0 1175.47 882.29
  A 39.79 39.79 0.0 0 0 1215.26 842.50"
/>
<path stroke="#808080" vector-effect="non-scaling-stroke" d="
  M 400.40 1162.25
  A 39.77 39.77 0.0 0 0 360.63 1122.48
  A 39.77 39.77 0.0 0 0 320.86 1162.25
  A 39.77 39.77 0.0 0 0 360.63 1202.02
  A 39.77 39.77 0.0 0 0 400.40 1162.25"
/>
<path stroke="#808080" vector-effect="non-scaling-stroke" d="
  M 671.89 1162.19
  A 39.75 39.75 0.0 0 0 632.14 1122.44
  A 39.75 39.75 0.0 0 0 592.39 1162.19
  A 39.75 39.75 0.0 0 0 632.14 1201.94
  A 39.75 39.75 0.0 0 0 671.89 1162.19"
/>
<path stroke="#808080" vector-effect="non-scaling-stroke" d="
  M 943.73 1162.25
  A 39.77 39.77 0.0 0 0 903.96 1122.48
  A 39.77 39.77 0.0 0 0 864.19 1162.25
  A 39.77 39.77 0.0 0 0 903.96 1202.02
  A 39.77 39.77 0.0 0 0 943.73 1162.25"
/>
<path stroke="#808080" vector-effect="non-scaling-stroke" d="
  M 1215.22 1162.25
  A 39.77 39.77 0.0 0 0 1175.45 1122.48
  A 39.77 39.77 0.0 0 0 1135.68 1162.25
  A 39.77 39.77 0.0 0 0 1175.45 1202.02
  A 39.77 39.77 0.0 0 0 1215.22 1162.25"
/>
<path stroke="#808080" vector-effect="non-scaling-stroke" d="
  M 390.00 202.49
  A 29.34 29.34 0.0 0 0 360.66 173.15
  A 29.34 29.34 0.0 0 0 331.32 202.49
  A 29.34 29.34 0.0 0 0 360.66 231.83
  A 29.34 29.34 0.0 0 0 390.00 202.49"
/>
<path stroke="#808080" vector-effect="non-scaling-stroke" d="
  M 661.50 202.49
  A 29.34 29.34 0.0 0 0 632.16 173.15
  A 29.34 29.34 0.0 0 0 602.82 202.49
  A 29.34 29.34 0.0 0 0 632.16 231.83
  A 29.34 29.34 0.0 0 0 661.50 202.49"
/>
<path stroke="#808080" vector-effect="non-scaling-stroke" d="
  M 933.33 202.49
  A 29.33 29.33 0.0 0 0 904.00 173.16
  A 29.33 29.33 0.0 0 0 874.67 202.49
  A 29.33 29.33 0.0 0 0 904.00 231.82
  A 29.33 29.33 0.0 0 0 933.33 202.49"
/>
<path stroke="#808080" vector-effect="non-scaling-stroke" d="
  M 1204.84 202.48
  A 29.34 29.34 0.0 0 0 1175.50 173.14
  A 29.34 29.34 0.0 0 0 1146.16 202.48
  A 29.34 29.34 0.0 0 0 1175.50 231.82
  A 29.34 29.34 0.0 0 0 1204.84 202.48"
/>
<path stroke="#808080" vector-effect="non-scaling-stroke" d="
  M 390.06 522.32
  A 29.39 29.39 0.0 0 0 360.67 492.93
  A 29.39 29.39 0.0 0 0 331.28 522.32
  A 29.39 29.39 0.0 0 0 360.67 551.71
  A 29.39 29.39 0.0 0 0 390.06 522.32"
/>
<path stroke="#808080" vector-effect="non-scaling-stroke" d="
  M 661.55 522.32
  A 29.39 29.39 0.0 0 0 632.16 492.93
  A 29.39 29.39 0.0 0 0 602.77 522.32
  A 29.39 29.39 0.0 0 0 632.16 551.71
  A 29.39 29.39 0.0 0 0 661.55 522.32"
/>
<path stroke="#808080" vector-effect="non-scaling-stroke" d="
  M 933.39 522.32
  A 29.39 29.39 0.0 0 0 904.00 492.93
  A 29.39 29.39 0.0 0 0 874.61 522.32
  A 29.39 29.39 0.0 0 0 904.00 551.71
  A 29.39 29.39 0.0 0 0 933.39 522.32"
/>
<path stroke="#808080" vector-effect="non-scaling-stroke" d="
  M 1204.88 522.32
  A 29.39 29.39 0.0 0 0 1175.49 492.93
  A 29.39 29.39 0.0 0 0 1146.10 522.32
  A 29.39 29.39 0.0 0 0 1175.49 551.71
  A 29.39 29.39 0.0 0 0 1204.88 522.32"
/>
<path stroke="#808080" vector-effect="non-scaling-stroke" d="
  M 390.05 842.42
  A 29.39 29.39 0.0 0 0 360.66 813.03
  A 29.39 29.39 0.0 0 0 331.27 842.42
  A 29.39 29.39 0.0 0 0 360.66 871.81
  A 29.39 29.39 0.0 0 0 390.05 842.42"
/>
<path stroke="#808080" vector-effect="non-scaling-stroke" d="
  M 661.54 842.42
  A 29.39 29.39 0.0 0 0 632.15 813.03
  A 29.39 29.39 0.0 0 0 602.76 842.42
  A 29.39 29.39 0.0 0 0 632.15 871.81
  A 29.39 29.39 0.0 0 0 661.54 842.42"
/>
<path stroke="#808080" vector-effect="non-scaling-stroke" d="
  M 933.39 842.42
  A 29.39 29.39 0.0 0 0 904.00 813.03
  A 29.39 29.39 0.0 0 0 874.61 842.42
  A 29.39 29.39 0.0 0 0 904.00 871.81
  A 29.39 29.39 0.0 0 0 933.39 842.42"
/>
<path stroke="#808080" vector-effect="non-scaling-stroke" d="
  M 1204.89 842.42
  A 29.39 29.39 0.0 0 0 1175.50 813.03
  A 29.39 29.39 0.0 0 0 1146.11 842.42
  A 29.39 29.39 0.0 0 0 1175.50 871.81
  A 29.39 29.39 0.0 0 0 1204.89 842.42"
/>
<path stroke="#808080" vector-effect="non-scaling-stroke" d="
  M 390.06 1162.16
  A 29.40 29.40 0.0 0 0 360.66 1132.76
  A 29.40 29.40 0.0 0 0 331.26 1162.16
  A 29.40 29.40 0.0 0 0 360.66 1191.56
  A 29.40 29.40 0.0 0 0 390.06 1162.16"
/>
<path stroke="#808080" vector-effect="non-scaling-stroke" d="
  M 661.55 1162.16
  A 29.40 29.40 0.0 0 0 632.15 1132.76
  A 29.40 29.40 0.0 0 0 602.75 1162.16
  A 29.40 29.40 0.0 0 0 632.15 1191.56
  A 29.40 29.40 0.0 0 0 661.55 1162.16"
/>
<path stroke="#808080" vector-effect="non-scaling-stroke" d="
  M 933.39 1162.16
  A 29.39 29.39 0.0 0 0 904.00 1132.77
  A 29.39 29.39 0.0 0 0 874.61 1162.16
  A 29.39 29.39 0.0 0 0 904.00 1191.55
  A 29.39 29.39 0.0 0 0 933.39 1162.16"
/>
<path stroke="#808080" vector-effect="non-scaling-stroke" d="
  M 1204.89 1162.16
  A 29.39 29.39 0.0 0 0 1175.50 1132.77
  A 29.39 29.39 0.0 0 0 1146.11 1162.16
  A 29.39 29.39 0.0 0 0 1175.50 1191.55
  A 29.39 29.39 0.0 0 0 1204.89 1162.16"
/>
</g>
<path fill="#000000" d="
  M 0.00 0.00
  L 1024.13 0.00
  L 1536.00 0.00
  L 1536.00 1024.13
  L 1536.00 1365.00
  L 511.88 1365.00
  L 0.00 1365.00
  L 0.00 340.88
  L 0.00 0.00
  Z
  M 400.40 202.50
  A 39.77 39.77 0.0 0 0 360.63 162.73
  A 39.77 39.77 0.0 0 0 320.86 202.50
  A 39.77 39.77 0.0 0 0 360.63 242.27
  A 39.77 39.77 0.0 0 0 400.40 202.50
  Z
  M 671.90 202.44
  A 39.76 39.76 0.0 0 0 632.14 162.68
  A 39.76 39.76 0.0 0 0 592.38 202.44
  A 39.76 39.76 0.0 0 0 632.14 242.20
  A 39.76 39.76 0.0 0 0 671.90 202.44
  Z
  M 943.73 202.50
  A 39.77 39.77 0.0 0 0 903.96 162.73
  A 39.77 39.77 0.0 0 0 864.19 202.50
  A 39.77 39.77 0.0 0 0 903.96 242.27
  A 39.77 39.77 0.0 0 0 943.73 202.50
  Z
  M 1215.30 202.43
  A 39.78 39.78 0.0 0 0 1175.52 162.65
  A 39.78 39.78 0.0 0 0 1135.74 202.43
  A 39.78 39.78 0.0 0 0 1175.52 242.21
  A 39.78 39.78 0.0 0 0 1215.30 202.43
  Z
  M 400.47 522.33
  A 39.80 39.80 0.0 0 0 360.67 482.53
  A 39.80 39.80 0.0 0 0 320.87 522.33
  A 39.80 39.80 0.0 0 0 360.67 562.13
  A 39.80 39.80 0.0 0 0 400.47 522.33
  Z
  M 671.98 522.30
  A 39.84 39.84 0.0 0 0 632.14 482.46
  A 39.84 39.84 0.0 0 0 592.30 522.30
  A 39.84 39.84 0.0 0 0 632.14 562.14
  A 39.84 39.84 0.0 0 0 671.98 522.30
  Z
  M 943.79 522.33
  A 39.83 39.83 0.0 0 0 903.96 482.50
  A 39.83 39.83 0.0 0 0 864.13 522.33
  A 39.83 39.83 0.0 0 0 903.96 562.16
  A 39.83 39.83 0.0 0 0 943.79 522.33
  Z
  M 1215.29 522.33
  A 39.83 39.83 0.0 0 0 1175.46 482.50
  A 39.83 39.83 0.0 0 0 1135.63 522.33
  A 39.83 39.83 0.0 0 0 1175.46 562.16
  A 39.83 39.83 0.0 0 0 1215.29 522.33
  Z
  M 400.42 842.48
  A 39.78 39.78 0.0 0 0 360.64 802.70
  A 39.78 39.78 0.0 0 0 320.86 842.48
  A 39.78 39.78 0.0 0 0 360.64 882.26
  A 39.78 39.78 0.0 0 0 400.42 842.48
  Z
  M 671.96 842.47
  A 39.80 39.80 0.0 0 0 632.16 802.67
  A 39.80 39.80 0.0 0 0 592.36 842.47
  A 39.80 39.80 0.0 0 0 632.16 882.27
  A 39.80 39.80 0.0 0 0 671.96 842.47
  Z
  M 943.76 842.49
  A 39.78 39.78 0.0 0 0 903.98 802.71
  A 39.78 39.78 0.0 0 0 864.20 842.49
  A 39.78 39.78 0.0 0 0 903.98 882.27
  A 39.78 39.78 0.0 0 0 943.76 842.49
  Z
  M 1215.26 842.50
  A 39.79 39.79 0.0 0 0 1175.47 802.71
  A 39.79 39.79 0.0 0 0 1135.68 842.50
  A 39.79 39.79 0.0 0 0 1175.47 882.29
  A 39.79 39.79 0.0 0 0 1215.26 842.50
  Z
  M 400.40 1162.25
  A 39.77 39.77 0.0 0 0 360.63 1122.48
  A 39.77 39.77 0.0 0 0 320.86 1162.25
  A 39.77 39.77 0.0 0 0 360.63 1202.02
  A 39.77 39.77 0.0 0 0 400.40 1162.25
  Z
  M 671.89 1162.19
  A 39.75 39.75 0.0 0 0 632.14 1122.44
  A 39.75 39.75 0.0 0 0 592.39 1162.19
  A 39.75 39.75 0.0 0 0 632.14 1201.94
  A 39.75 39.75 0.0 0 0 671.89 1162.19
  Z
  M 943.73 1162.25
  A 39.77 39.77 0.0 0 0 903.96 1122.48
  A 39.77 39.77 0.0 0 0 864.19 1162.25
  A 39.77 39.77 0.0 0 0 903.96 1202.02
  A 39.77 39.77 0.0 0 0 943.73 1162.25
  Z
  M 1215.22 1162.25
  A 39.77 39.77 0.0 0 0 1175.45 1122.48
  A 39.77 39.77 0.0 0 0 1135.68 1162.25
  A 39.77 39.77 0.0 0 0 1175.45 1202.02
  A 39.77 39.77 0.0 0 0 1215.22 1162.25
  Z"
/>
<path fill="#ffffff" d="
  M 400.40 202.50
  A 39.77 39.77 0.0 0 1 360.63 242.27
  A 39.77 39.77 0.0 0 1 320.86 202.50
  A 39.77 39.77 0.0 0 1 360.63 162.73
  A 39.77 39.77 0.0 0 1 400.40 202.50
  Z
  M 390.00 202.49
  A 29.34 29.34 0.0 0 0 360.66 173.15
  A 29.34 29.34 0.0 0 0 331.32 202.49
  A 29.34 29.34 0.0 0 0 360.66 231.83
  A 29.34 29.34 0.0 0 0 390.00 202.49
  Z"
/>
<path fill="#ffffff" d="
  M 671.90 202.44
  A 39.76 39.76 0.0 0 1 632.14 242.20
  A 39.76 39.76 0.0 0 1 592.38 202.44
  A 39.76 39.76 0.0 0 1 632.14 162.68
  A 39.76 39.76 0.0 0 1 671.90 202.44
  Z
  M 661.50 202.49
  A 29.34 29.34 0.0 0 0 632.16 173.15
  A 29.34 29.34 0.0 0 0 602.82 202.49
  A 29.34 29.34 0.0 0 0 632.16 231.83
  A 29.34 29.34 0.0 0 0 661.50 202.49
  Z"
/>
<path fill="#ffffff" d="
  M 943.73 202.50
  A 39.77 39.77 0.0 0 1 903.96 242.27
  A 39.77 39.77 0.0 0 1 864.19 202.50
  A 39.77 39.77 0.0 0 1 903.96 162.73
  A 39.77 39.77 0.0 0 1 943.73 202.50
  Z
  M 933.33 202.49
  A 29.33 29.33 0.0 0 0 904.00 173.16
  A 29.33 29.33 0.0 0 0 874.67 202.49
  A 29.33 29.33 0.0 0 0 904.00 231.82
  A 29.33 29.33 0.0 0 0 933.33 202.49
  Z"
/>
<path fill="#ffffff" d="
  M 1215.30 202.43
  A 39.78 39.78 0.0 0 1 1175.52 242.21
  A 39.78 39.78 0.0 0 1 1135.74 202.43
  A 39.78 39.78 0.0 0 1 1175.52 162.65
  A 39.78 39.78 0.0 0 1 1215.30 202.43
  Z
  M 1204.84 202.48
  A 29.34 29.34 0.0 0 0 1175.50 173.14
  A 29.34 29.34 0.0 0 0 1146.16 202.48
  A 29.34 29.34 0.0 0 0 1175.50 231.82
  A 29.34 29.34 0.0 0 0 1204.84 202.48
  Z"
/>
<circle fill="#000000" cx="360.66" cy="202.49" r="29.34"/>
<circle fill="#000000" cx="632.16" cy="202.49" r="29.34"/>
<circle fill="#000000" cx="904.00" cy="202.49" r="29.33"/>
<circle fill="#000000" cx="1175.50" cy="202.48" r="29.34"/>
<path fill="#ffffff" d="
  M 400.47 522.33
  A 39.80 39.80 0.0 0 1 360.67 562.13
  A 39.80 39.80 0.0 0 1 320.87 522.33
  A 39.80 39.80 0.0 0 1 360.67 482.53
  A 39.80 39.80 0.0 0 1 400.47 522.33
  Z
  M 390.06 522.32
  A 29.39 29.39 0.0 0 0 360.67 492.93
  A 29.39 29.39 0.0 0 0 331.28 522.32
  A 29.39 29.39 0.0 0 0 360.67 551.71
  A 29.39 29.39 0.0 0 0 390.06 522.32
  Z"
/>
<path fill="#ffffff" d="
  M 671.98 522.30
  A 39.84 39.84 0.0 0 1 632.14 562.14
  A 39.84 39.84 0.0 0 1 592.30 522.30
  A 39.84 39.84 0.0 0 1 632.14 482.46
  A 39.84 39.84 0.0 0 1 671.98 522.30
  Z
  M 661.55 522.32
  A 29.39 29.39 0.0 0 0 632.16 492.93
  A 29.39 29.39 0.0 0 0 602.77 522.32
  A 29.39 29.39 0.0 0 0 632.16 551.71
  A 29.39 29.39 0.0 0 0 661.55 522.32
  Z"
/>
<path fill="#ffffff" d="
  M 943.79 522.33
  A 39.83 39.83 0.0 0 1 903.96 562.16
  A 39.83 39.83 0.0 0 1 864.13 522.33
  A 39.83 39.83 0.0 0 1 903.96 482.50
  A 39.83 39.83 0.0 0 1 943.79 522.33
  Z
  M 933.39 522.32
  A 29.39 29.39 0.0 0 0 904.00 492.93
  A 29.39 29.39 0.0 0 0 874.61 522.32
  A 29.39 29.39 0.0 0 0 904.00 551.71
  A 29.39 29.39 0.0 0 0 933.39 522.32
  Z"
/>
<path fill="#ffffff" d="
  M 1215.29 522.33
  A 39.83 39.83 0.0 0 1 1175.46 562.16
  A 39.83 39.83 0.0 0 1 1135.63 522.33
  A 39.83 39.83 0.0 0 1 1175.46 482.50
  A 39.83 39.83 0.0 0 1 1215.29 522.33
  Z
  M 1204.88 522.32
  A 29.39 29.39 0.0 0 0 1175.49 492.93
  A 29.39 29.39 0.0 0 0 1146.10 522.32
  A 29.39 29.39 0.0 0 0 1175.49 551.71
  A 29.39 29.39 0.0 0 0 1204.88 522.32
  Z"
/>
<circle fill="#000000" cx="360.67" cy="522.32" r="29.39"/>
<circle fill="#000000" cx="632.16" cy="522.32" r="29.39"/>
<circle fill="#000000" cx="904.00" cy="522.32" r="29.39"/>
<circle fill="#000000" cx="1175.49" cy="522.32" r="29.39"/>
<path fill="#ffffff" d="
  M 400.42 842.48
  A 39.78 39.78 0.0 0 1 360.64 882.26
  A 39.78 39.78 0.0 0 1 320.86 842.48
  A 39.78 39.78 0.0 0 1 360.64 802.70
  A 39.78 39.78 0.0 0 1 400.42 842.48
  Z
  M 390.05 842.42
  A 29.39 29.39 0.0 0 0 360.66 813.03
  A 29.39 29.39 0.0 0 0 331.27 842.42
  A 29.39 29.39 0.0 0 0 360.66 871.81
  A 29.39 29.39 0.0 0 0 390.05 842.42
  Z"
/>
<path fill="#ffffff" d="
  M 671.96 842.47
  A 39.80 39.80 0.0 0 1 632.16 882.27
  A 39.80 39.80 0.0 0 1 592.36 842.47
  A 39.80 39.80 0.0 0 1 632.16 802.67
  A 39.80 39.80 0.0 0 1 671.96 842.47
  Z
  M 661.54 842.42
  A 29.39 29.39 0.0 0 0 632.15 813.03
  A 29.39 29.39 0.0 0 0 602.76 842.42
  A 29.39 29.39 0.0 0 0 632.15 871.81
  A 29.39 29.39 0.0 0 0 661.54 842.42
  Z"
/>
<path fill="#ffffff" d="
  M 943.76 842.49
  A 39.78 39.78 0.0 0 1 903.98 882.27
  A 39.78 39.78 0.0 0 1 864.20 842.49
  A 39.78 39.78 0.0 0 1 903.98 802.71
  A 39.78 39.78 0.0 0 1 943.76 842.49
  Z
  M 933.39 842.42
  A 29.39 29.39 0.0 0 0 904.00 813.03
  A 29.39 29.39 0.0 0 0 874.61 842.42
  A 29.39 29.39 0.0 0 0 904.00 871.81
  A 29.39 29.39 0.0 0 0 933.39 842.42
  Z"
/>
<path fill="#ffffff" d="
  M 1215.26 842.50
  A 39.79 39.79 0.0 0 1 1175.47 882.29
  A 39.79 39.79 0.0 0 1 1135.68 842.50
  A 39.79 39.79 0.0 0 1 1175.47 802.71
  A 39.79 39.79 0.0 0 1 1215.26 842.50
  Z
  M 1204.89 842.42
  A 29.39 29.39 0.0 0 0 1175.50 813.03
  A 29.39 29.39 0.0 0 0 1146.11 842.42
  A 29.39 29.39 0.0 0 0 1175.50 871.81
  A 29.39 29.39 0.0 0 0 1204.89 842.42
  Z"
/>
<circle fill="#000000" cx="360.66" cy="842.42" r="29.39"/>
<circle fill="#000000" cx="632.15" cy="842.42" r="29.39"/>
<circle fill="#000000" cx="904.00" cy="842.42" r="29.39"/>
<circle fill="#000000" cx="1175.50" cy="842.42" r="29.39"/>
<path fill="#ffffff" d="
  M 400.40 1162.25
  A 39.77 39.77 0.0 0 1 360.63 1202.02
  A 39.77 39.77 0.0 0 1 320.86 1162.25
  A 39.77 39.77 0.0 0 1 360.63 1122.48
  A 39.77 39.77 0.0 0 1 400.40 1162.25
  Z
  M 390.06 1162.16
  A 29.40 29.40 0.0 0 0 360.66 1132.76
  A 29.40 29.40 0.0 0 0 331.26 1162.16
  A 29.40 29.40 0.0 0 0 360.66 1191.56
  A 29.40 29.40 0.0 0 0 390.06 1162.16
  Z"
/>
<path fill="#ffffff" d="
  M 671.89 1162.19
  A 39.75 39.75 0.0 0 1 632.14 1201.94
  A 39.75 39.75 0.0 0 1 592.39 1162.19
  A 39.75 39.75 0.0 0 1 632.14 1122.44
  A 39.75 39.75 0.0 0 1 671.89 1162.19
  Z
  M 661.55 1162.16
  A 29.40 29.40 0.0 0 0 632.15 1132.76
  A 29.40 29.40 0.0 0 0 602.75 1162.16
  A 29.40 29.40 0.0 0 0 632.15 1191.56
  A 29.40 29.40 0.0 0 0 661.55 1162.16
  Z"
/>
<path fill="#ffffff" d="
  M 943.73 1162.25
  A 39.77 39.77 0.0 0 1 903.96 1202.02
  A 39.77 39.77 0.0 0 1 864.19 1162.25
  A 39.77 39.77 0.0 0 1 903.96 1122.48
  A 39.77 39.77 0.0 0 1 943.73 1162.25
  Z
  M 933.39 1162.16
  A 29.39 29.39 0.0 0 0 904.00 1132.77
  A 29.39 29.39 0.0 0 0 874.61 1162.16
  A 29.39 29.39 0.0 0 0 904.00 1191.55
  A 29.39 29.39 0.0 0 0 933.39 1162.16
  Z"
/>
<path fill="#ffffff" d="
  M 1215.22 1162.25
  A 39.77 39.77 0.0 0 1 1175.45 1202.02
  A 39.77 39.77 0.0 0 1 1135.68 1162.25
  A 39.77 39.77 0.0 0 1 1175.45 1122.48
  A 39.77 39.77 0.0 0 1 1215.22 1162.25
  Z
  M 1204.89 1162.16
  A 29.39 29.39 0.0 0 0 1175.50 1132.77
  A 29.39 29.39 0.0 0 0 1146.11 1162.16
  A 29.39 29.39 0.0 0 0 1175.50 1191.55
  A 29.39 29.39 0.0 0 0 1204.89 1162.16
  Z"
/>
<circle fill="#000000" cx="360.66" cy="1162.16" r="29.40"/>
<circle fill="#000000" cx="632.15" cy="1162.16" r="29.40"/>
<circle fill="#000000" cx="904.00" cy="1162.16" r="29.39"/>
<circle fill="#000000" cx="1175.50" cy="1162.16" r="29.39"/>
</svg>
