<?xml version="1.0" encoding="UTF-8"?>
<svg width="1024px" height="1024px" viewBox="0 0 1024 1024" version="1.1" xmlns="http://www.w3.org/2000/svg" xmlns:xlink="http://www.w3.org/1999/xlink">
    <title>Canvas</title>
    <g id="Canvas" stroke="none" stroke-width="1" fill="none" fill-rule="evenodd">
        <rect fill="#F6F9FF" x="0" y="0" width="1024" height="1024"></rect>
        <g id="logo" transform="translate(59.000000, 162.000000)" fill-rule="nonzero">
            <path d="M286.314089,369.651288 C285.110956,369.651288 284.910434,370.105161 285.712523,371.012908 L576.554193,699.733375 C577.292959,700.55668 577.113544,700.968333 576.015949,700.968333 L405.487619,701 C404.481495,701 403.511172,700.550381 402.828061,699.765041 C272.784115,553.047817 143.04623,406.045603 13.6144043,258.758399 C13.4877587,258.631737 11.609182,256.626249 7.97867418,252.741937 C5.02360968,249.596489 2.55402005,246.345489 0.569905313,242.988936 C-0.126645607,241.806754 0.211076051,241.215663 1.58307029,241.215663 C101.82308,241.215663 201.355985,241.215663 300.181785,241.215663 C319.558565,241.215663 330.977779,240.730124 334.439426,239.759046 C347.378387,236.064728 355.346507,226.079512 358.343787,209.8034 C362.01651,189.769638 361.235528,170.485295 356.000843,151.950371 C353.573468,143.400663 348.908688,137.067545 342.006501,132.951019 C337.447259,130.227778 330.270674,128.697275 320.476746,128.359508 C304.308321,127.831749 288.139897,127.715641 271.971473,128.011187 C249.724058,128.454505 233.576742,128.612833 223.529522,128.486171 C149.420726,127.599534 75.5968824,127.6312 2.05799137,128.581168 C1.51511059,128.589652 0.991534299,128.379888 0.604648238,127.998904 C0.217762178,127.617919 0,127.097589 0,126.55457 L0,2.55212801 C0,1.78534418 0.349649711,1.06046025 0.93804705,0.576194307 C1.52644439,0.091928369 2.29737401,-0.100908871 3.03949494,0.0505465694 C5.99455944,0.641637542 9.46676024,0.937183028 13.4560973,0.937183028 C112.387435,0.704968718 211.318774,0.578306366 310.250112,0.557195975 C340.265124,0.557195975 361.246082,2.07714419 373.192986,5.11704062 C401.392744,12.3156843 424.81163,27.6207184 443.449644,51.032143 C467.596743,81.3255553 481.781053,116.484913 486.002573,156.510216 C488.535486,180.660504 488.166103,203.375286 484.894424,224.654561 C479.02651,262.547714 463.860697,295.194935 439.396985,322.596224 C427.070144,336.38131 413.645708,347.084279 399.123677,354.70513 C382.596423,363.402612 365.647017,368.057453 348.27546,368.669654 C327.505578,369.408518 306.851788,369.735729 286.314089,369.651288 Z" id="Path" fill="#0063C6"></path>
            <path d="M706.508078,536.290185 C752.865768,587.051307 799.381855,638.814987 846.05634,691.581226 C847.006726,692.657658 848.347825,693.892388 850.079639,695.285416 C855.401797,699.612248 854.092377,701.46962 846.151379,700.857531 C843.743736,700.667573 841.842965,700.583147 840.449066,700.604253 C787.544277,701.131916 734.639487,701.131916 681.734698,700.604253 C680.745454,700.584717 679.804154,700.148777 679.136977,699.401183 L419.745111,406.643536 C418.49905,405.2294 418.815845,404.532886 420.695496,404.553993 C528.701522,404.933909 635.809961,404.691185 742.020814,403.825818 C749.560539,403.783605 755.558527,402.43279 760.014778,399.773371 C768.526008,394.750025 774.080483,387.478838 776.678203,377.959808 C778.114341,372.725397 779.212564,364.061181 779.972873,351.967159 C781.007737,335.778477 778.304418,320.919504 771.862917,307.39024 C766.836434,296.858099 757.659934,291.581475 744.333419,291.560368 C670.689107,291.433729 595.967691,291.37041 520.169172,291.37041 C519.595191,291.364525 519.059153,291.081143 518.736219,290.612864 C518.413284,290.144585 518.344939,289.551567 518.553517,289.027589 C533.40065,251.415814 539.704873,210.75415 537.466187,167.042597 C537.414031,166.035828 537.774709,165.051887 538.463665,164.32145 C539.152621,163.591014 540.109269,163.178316 541.109332,163.180109 C605.967858,162.842405 669.749281,162.979597 732.453601,163.591685 C762.359062,163.887176 783.309782,165.744548 795.305758,169.1638 C810.596404,173.511738 824.672668,180.455775 837.534551,189.995911 C849.023655,198.501829 859.731331,209.624952 869.657579,223.365281 C887.86274,248.54533 899.351844,276.55365 904.124891,307.39024 C907.989792,332.380331 907.958112,358.689578 904.029852,386.31798 C898.897771,422.557833 884.663109,454.692473 861.325866,482.721899 C836.573606,512.439845 804.693454,528.660187 765.685412,531.382925 C747.50137,532.628208 728.303584,533.071444 708.092054,532.712634 C704.797384,532.670421 704.269392,533.862938 706.508078,536.290185 Z" id="Path" fill="#008FE1"></path>
        </g>
    </g>
</svg>